HIERARCHY
ROOT hip
{
	OFFSET 0.000000 0.000000 0.000000 
	CHANNELS 6 Xposition Yposition Zposition Xrotation Zrotation Yrotation
	JOINT abdomen
	{
		OFFSET 0.000000 3.402643 0.000000 
		CHANNELS 3 Xrotation Zrotation Yrotation
		JOINT chest
		{
			OFFSET 0.000000 8.438565 -0.680529 
			CHANNELS 3 Xrotation Zrotation Yrotation
			JOINT neck
			{
				OFFSET 0.000000 10.207942 -0.272212 
				CHANNELS 3 Xrotation Zrotation Yrotation
				JOINT head
				{
					OFFSET 0.000000 3.130431 0.000000 
					CHANNELS 3 Xrotation Zrotation Yrotation
					End Site
					{
						OFFSET 0.000000 3.130435 0.000000 
					}
				}
			}
			JOINT lCollar
			{
				OFFSET 3.470700 6.669187 -0.816635 
				CHANNELS 3 Yrotation Zrotation Xrotation
				JOINT lShldr
				{
					OFFSET 3.198488 0.000000 0.000000 
					CHANNELS 3 Zrotation Yrotation Xrotation
					JOINT lForeArm
					{
						OFFSET 10.139888 0.000000 0.000000 
						CHANNELS 3 Yrotation Zrotation Xrotation
						JOINT lHand
						{
							OFFSET 8.370511 0.000000 0.000000 
							CHANNELS 3 Zrotation Yrotation Xrotation
							End Site
							{
								OFFSET 4.083176 0.000000 0.000000 
							}
						}
					}
				}
			}
			JOINT rCollar
			{
				OFFSET -3.470700 6.669187 -0.816635 
				CHANNELS 3 Yrotation Zrotation Xrotation
				JOINT rShldr
				{
					OFFSET -3.198488 0.000000 0.000000 
					CHANNELS 3 Zrotation Yrotation Xrotation
					JOINT rForeArm
					{
						OFFSET -10.139888 0.000000 0.000000 
						CHANNELS 3 Yrotation Zrotation Xrotation
						JOINT rHand
						{
							OFFSET -8.370511 0.000000 0.000000 
							CHANNELS 3 Zrotation Yrotation Xrotation
							End Site
							{
								OFFSET -4.083176 0.000000 0.000000 
							}
						}
					}
				}
			}
		}
	}
	JOINT lThigh
	{
		OFFSET 5.308129 -1.633274 1.361059 
		CHANNELS 3 Xrotation Zrotation Yrotation
		JOINT lShin
		{
			OFFSET -2.041588 -20.007561 0.000000 
			CHANNELS 3 Xrotation Zrotation Yrotation
			JOINT lFoot
			{
				OFFSET 0.000000 -19.190928 -1.224953 
				CHANNELS 3 Xrotation Yrotation Zrotation
				End Site
				{
					OFFSET 0.000000 -2.449906 4.627600 
				}
			}
		}
	}
	JOINT rThigh
	{
		OFFSET -5.308129 -1.633274 1.361059 
		CHANNELS 3 Xrotation Zrotation Yrotation
		JOINT rShin
		{
			OFFSET 2.041588 -20.007561 0.000000 
			CHANNELS 3 Xrotation Zrotation Yrotation
			JOINT rFoot
			{
				OFFSET 0.000000 -19.190928 -1.224953 
				CHANNELS 3 Xrotation Yrotation Zrotation
				End Site
				{
					OFFSET 0.000000 -2.449906 4.627600 
				}
			}
		}
	}
}
MOTION
Frames: 11
Frame Time: 0.011111
-1.045116 50.306580 -77.523338 1.282705 -1.012455 -5.805485 41.930717 3.415258 -3.782895 -28.410198 3.072521 -1.695319 -7.718879 -0.640085 2.990872 -16.485085 -3.277773 6.337306 8.861669 -1.932660 3.351237 -71.157356 -26.735826 55.168159 -88.881767 4.866348 34.349831 8.524705 12.647240 -23.645884 -6.806992 -0.756156 2.905732 65.551796 27.760830 41.390350 86.174500 -1.277323 29.464384 -8.534408 -12.637552 53.265480 -2.890623 12.700635 14.325893 103.841080 3.190539 -9.739428 15.033222 2.034024 -2.515328 -16.556541 1.707789 1.898459 45.652870 4.196108 6.737568 -23.293562 -2.373124 1.461478 
-1.076011 50.153038 -76.120293 1.566029 -1.474934 -5.354969 41.985779 3.847729 -3.146791 -28.064337 2.587270 -1.554404 -8.451356 -0.048241 2.802410 -16.095839 -3.528902 6.125988 8.861669 -1.932660 3.351237 -70.984879 -25.790674 54.606426 -88.652939 4.648473 34.165489 8.524705 12.647240 -23.216198 -6.806992 -0.756156 2.905732 66.426994 30.401810 41.211788 86.213593 -1.267621 29.739429 -8.534408 -12.637552 53.128761 -7.010434 14.545341 14.015236 107.034531 3.648798 -9.661963 14.373249 1.038398 -2.360780 -15.005811 2.031052 1.760624 45.899906 4.169436 6.748427 -24.779097 -1.991569 1.433345 
-1.103161 50.049747 -74.699127 1.771661 -1.413210 -4.841067 41.868767 3.818485 -3.115444 -28.152786 2.645708 -1.547648 -8.277155 -0.014517 2.686527 -16.000277 -3.609728 5.908857 8.861669 -1.932660 3.351237 -71.162621 -24.097929 53.830475 -88.487381 4.486138 34.030075 8.524705 12.647240 -22.679089 -6.806992 -0.756156 2.905732 66.897049 32.317837 41.162228 86.257820 -1.279170 30.061924 -8.534408 -12.637552 52.913921 -11.130688 15.434542 13.379769 109.509277 4.010492 -9.581950 13.724814 0.545294 -2.302272 -13.305412 1.834753 1.702502 45.624115 4.196058 6.715704 -25.787619 -2.163493 1.189858 
-1.102537 50.039131 -73.258934 2.143674 -1.755442 -4.268007 41.596340 4.302444 -2.690562 -28.299061 2.588183 -1.516691 -7.850756 0.058610 2.434418 -16.227026 -4.002782 5.484072 8.861669 -1.932660 3.351237 -71.315697 -22.654016 53.355515 -88.361549 4.359345 33.933826 8.524705 12.647240 -22.083385 -6.806992 -0.756156 2.905732 67.310944 33.806828 40.948082 86.317741 -1.362005 30.468081 -8.534408 -12.637552 52.523293 -15.524252 16.645262 12.517608 111.488823 4.273912 -9.520445 12.481151 -0.116738 -2.286615 -11.540671 2.079909 1.480226 45.170654 4.228393 6.689778 -26.585291 -2.421622 0.955433 
-1.071018 50.060360 -71.838089 2.243291 -2.238707 -3.723382 41.943844 4.715590 -1.723991 -28.296167 2.098308 -1.294579 -8.772105 0.649448 2.037211 -15.238747 -4.668260 4.896078 8.861669 -1.932660 3.351237 -70.966141 -22.162184 53.575798 -88.223083 4.214446 33.809185 8.524705 12.647240 -21.302137 -6.806992 -0.756156 2.905732 68.136986 35.402477 40.204857 86.395050 -1.519812 30.889271 -8.534408 -12.637552 51.839703 -19.725437 17.586428 11.557981 112.883469 4.478402 -9.474965 10.734036 -0.739290 -2.351591 -9.292107 2.391214 1.210648 44.511108 4.277410 6.613295 -27.042625 -2.617648 0.789127 
-1.076323 50.105915 -70.431908 2.078407 -2.330883 -3.358271 42.261646 4.732526 -1.418197 -29.276052 2.442078 -1.272990 -7.728583 0.180480 1.992787 -15.078483 -4.688898 4.684186 8.861669 -1.932660 3.351237 -71.285202 -20.247250 53.346619 -88.143822 4.129376 33.731926 8.524705 12.647240 -20.784557 -6.806992 -0.756156 2.905732 68.145218 35.931435 40.245518 86.491516 -1.728165 31.268534 -8.534408 -12.637552 51.331890 -23.328127 17.605350 10.587642 113.556770 4.574993 -9.449986 9.642561 -1.195898 -2.406142 -6.873587 2.373295 1.007100 43.682987 4.358295 6.505557 -26.296633 -2.939101 0.751068 
-1.128438 50.301273 -68.937103 2.283140 -2.496481 -3.569139 42.388481 4.065054 -0.177345 -29.351973 2.029153 -0.839958 -8.768496 0.697896 1.456679 -13.846666 -5.027653 3.740233 8.861669 -1.932660 3.351237 -70.547295 -19.779739 53.887951 -88.081665 4.058564 33.675064 8.524705 12.647240 -20.413464 -6.806992 -0.756156 2.905732 69.049454 36.932396 39.265316 86.629700 -2.006927 31.683369 -8.534408 -12.637552 51.302593 -26.626984 17.916277 10.070517 113.362282 4.545900 -9.438295 9.503391 -1.815754 -2.343443 -5.022316 2.622775 1.202906 42.676544 4.450221 6.385110 -25.511084 -3.636159 0.595450 
-1.145290 50.423603 -67.441040 2.818938 -2.743715 -4.046186 41.899509 3.473063 1.193764 -28.997677 1.527199 -0.358600 -9.886291 1.022603 0.981279 -12.669430 -4.955300 2.815220 8.861669 -1.932660 3.351237 -69.853638 -19.493433 54.358936 -88.072899 4.051404 33.665291 8.524705 12.647240 -20.286510 -6.806992 -0.756156 2.905732 69.820564 37.815323 38.526199 86.832031 -2.377358 32.123840 -8.534408 -12.637552 51.527203 -30.209845 18.364925 9.620890 112.863831 4.487217 -9.471654 9.210475 -2.537388 -2.285713 -3.061084 2.903700 2.122820 41.520546 4.548154 6.271482 -25.275990 -3.330882 0.759239 
-1.136865 50.687927 -65.914406 3.238329 -2.855305 -4.162200 41.519466 3.150462 2.080139 -29.034939 1.112074 -0.053932 -10.152202 0.908497 0.701720 -12.229059 -4.389564 2.153912 8.861669 -1.932660 3.351237 -69.354370 -18.811363 54.561226 -88.074104 4.050788 33.665272 8.524705 12.647240 -20.169323 -6.806992 -0.756156 2.905732 70.258148 38.242764 38.265648 87.082893 -2.786234 32.534992 -8.534408 -12.637552 51.673687 -33.315151 18.160244 8.876604 111.644745 4.293201 -9.520833 8.380034 -3.221588 -2.320483 -0.916672 2.926534 2.775031 40.117222 4.659192 6.111132 -24.620939 -3.319118 0.866480 
-1.092551 50.926342 -64.275742 3.497862 -2.666560 -4.869340 40.948425 2.207104 3.154560 -28.818064 0.510787 0.393060 -10.681766 0.933854 0.424551 -11.459005 -3.760199 1.506196 8.861669 -1.932660 3.351237 -68.641159 -18.182014 54.786736 -88.102577 4.082767 33.703754 8.524705 12.647240 -19.925182 -6.806992 -0.756156 2.905732 70.862808 38.421459 38.043884 87.362846 -3.187676 32.928898 -8.534408 -12.637552 51.771343 -35.191795 17.741632 8.890330 109.898773 4.068476 -9.579402 6.753756 -3.832628 -2.467282 1.405993 2.479926 3.794756 38.495003 4.777391 5.920883 -23.372314 -3.048328 1.177883 
-1.055102 51.137924 -62.743176 3.538673 -2.967087 -4.704058 40.899570 2.208626 4.041955 -28.983122 -0.076518 0.665822 -11.034691 0.826774 0.213416 -10.712250 -3.023952 0.989488 8.861669 -1.932660 3.351237 -68.081123 -17.299507 54.856918 -88.152214 4.137376 33.751457 8.524705 12.647240 -19.954481 -6.806992 -0.756156 2.905732 71.193924 38.572166 38.037865 87.653221 -3.564080 33.258282 -8.534408 -12.637552 52.201027 -37.568279 17.343786 7.793034 107.968384 3.798779 -9.656951 5.600426 -4.355249 -2.581585 4.004260 2.519794 4.322046 36.584095 4.905532 5.677985 -21.151838 -2.903016 1.536744 
